grf
version=1
nRows=9
nColumns=37
inDegrees=no
endheader
time	ground_force_1_vx	ground_force_1_vy	ground_force_1_vz	ground_force_1_px	ground_force_1_py	ground_force_1_pz	ground_moment_1_mx	ground_moment_1_my	ground_moment_1_mz	ground_force_2_vx	ground_force_2_vy	ground_force_2_vz	ground_force_2_px	ground_force_2_py	ground_force_2_pz	ground_moment_2_mx	ground_moment_2_my	ground_moment_2_mz	ground_force_3_vx	ground_force_3_vy	ground_force_3_vz	ground_force_3_px	ground_force_3_py	ground_force_3_pz	ground_moment_3_mx	ground_moment_3_my	ground_moment_3_mz	ground_force_4_vx	ground_force_4_vy	ground_force_4_vz	ground_force_4_px	ground_force_4_py	ground_force_4_pz	ground_moment_4_mx	ground_moment_4_my	ground_moment_4_mz
      0.00000000	      0.00000000	     -0.00000000	      0.00000000	      0.00000000	      0.00000000	      0.00000000	      0.00000000	      0.00000000	      0.00000000	      2.69869471	     40.09734726	   -360.55181885	   -272.40171104	  -1076.48372085	      0.00000000	      0.00000000	      0.00000000	   4103.50505074	     -2.68365836	    -51.80036903	   -431.59414673	   -260.54754221	   -691.89459320	      0.00000000	      0.00000000	     -0.00000000	  -6295.72571904	      0.00000000	     -0.00000000	      0.00000000	      0.00000000	      0.00000000	      0.00000000	      0.00000000	      0.00000000	      0.00000000
      0.01000000	      0.00000000	     -0.00000000	      0.00000000	      0.00000000	      0.00000000	      0.00000000	      0.00000000	      0.00000000	      0.00000000	      2.62059569	     40.35386276	   -360.15554810	   -273.12003980	  -1076.00052696	      0.00000000	      0.00000000	      0.00000000	   4025.07916313	     -1.97382218	    -51.14929182	   -430.89675903	   -261.57416666	   -692.12492438	      0.00000000	      0.00000000	     -0.00000000	  -6262.59425230	      0.00000000	     -0.00000000	      0.00000000	      0.00000000	      0.00000000	      0.00000000	      0.00000000	      0.00000000	      0.00000000
      0.02000000	      0.00000000	     -0.00000000	      0.00000000	      0.00000000	      0.00000000	      0.00000000	      0.00000000	      0.00000000	      0.00000000	      2.83263922	     40.24197006	   -361.74047852	   -273.93387141	  -1075.59241852	      0.00000000	      0.00000000	      0.00000000	   4262.61154358	     -1.39732730	    -50.38726794	   -429.54528809	   -262.39527307	   -692.90152268	      0.00000000	      0.00000000	     -0.00000000	  -6311.67824494	      0.00000000	     -0.00000000	      0.00000000	      0.00000000	      0.00000000	      0.00000000	      0.00000000	      0.00000000	      0.00000000
      0.03000000	      0.00000000	     -0.00000000	      0.00000000	      0.00000000	      0.00000000	      0.00000000	      0.00000000	      0.00000000	      0.00000000	      3.16629863	     40.25334930	   -360.86297607	   -273.65358073	  -1075.64520289	      0.00000000	      0.00000000	      0.00000000	   4259.15544157	     -1.19811820	    -50.35375585	   -428.36795044	   -262.59090555	   -692.77402329	      0.00000000	      0.00000000	      0.00000000	  -6204.34000597	      0.00000000	     -0.00000000	      0.00000000	      0.00000000	      0.00000000	      0.00000000	      0.00000000	      0.00000000	      0.00000000
      0.04000000	      0.00000000	     -0.00000000	      0.00000000	      0.00000000	      0.00000000	      0.00000000	      0.00000000	      0.00000000	      0.00000000	      2.95387793	     39.98588562	   -364.17556763	   -274.12455711	  -1077.49552224	      0.00000000	      0.00000000	      0.00000000	   4209.42700384	     -1.47461658	    -49.70343768	   -425.22061157	   -263.68450410	   -693.93683485	      0.00000000	      0.00000000	     -0.00000000	  -6069.80710191	      0.00000000	     -0.00000000	      0.00000000	      0.00000000	      0.00000000	      0.00000000	      0.00000000	      0.00000000	      0.00000000
      0.05000000	      0.00000000	     -0.00000000	      0.00000000	      0.00000000	      0.00000000	      0.00000000	      0.00000000	      0.00000000	      0.00000000	      2.99939680	     40.05328369	   -363.15487671	   -274.00347819	  -1077.17833808	      0.00000000	      0.00000000	      0.00000000	   4366.42142964	     -1.56539869	    -49.05192552	   -423.07815552	   -263.30916315	   -693.50580239	      0.00000000	      0.00000000	     -0.00000000	  -5982.29304955	      0.00000000	     -0.00000000	      0.00000000	      0.00000000	      0.00000000	      0.00000000	      0.00000000	      0.00000000	      0.00000000
      0.06000000	      0.00000000	     -0.00000000	      0.00000000	      0.00000000	      0.00000000	      0.00000000	      0.00000000	      0.00000000	      0.00000000	      2.83318567	     40.11794662	   -361.79019165	   -274.19897005	  -1075.97464315	      0.00000000	      0.00000000	      0.00000000	   4363.88846062	     -1.26346139	    -48.16877736	   -420.20925903	   -263.98595680	   -693.65533525	      0.00000000	     -0.00000000	     -0.00000000	  -6023.87063074	      0.00000000	     -0.00000000	      0.00000000	      0.00000000	      0.00000000	      0.00000000	      0.00000000	      0.00000000	      0.00000000
      0.07000000	      0.00000000	     -0.00000000	      0.00000000	      0.00000000	      0.00000000	      0.00000000	      0.00000000	      0.00000000	      0.00000000	      3.03315735	     40.44381714	   -362.14367676	   -273.43979484	  -1076.31292444	      0.00000000	      0.00000000	      0.00000000	   4513.00038495	     -1.49577727	    -47.95867907	   -415.83959961	   -264.37891169	   -693.97487746	      0.00000000	      0.00000000	     -0.00000000	  -6012.70902704	      0.00000000	     -0.00000000	      0.00000000	      0.00000000	      0.00000000	      0.00000000	      0.00000000	      0.00000000	      0.00000000
      0.08000000	      0.00000000	     -0.00000000	      0.00000000	      0.00000000	      0.00000000	      0.00000000	      0.00000000	      0.00000000	      0.00000000	      2.24295497	     40.69865799	   -362.26211548	   -273.96266559	  -1076.25636360	      0.00000000	      0.00000000	      0.00000000	   4323.38262643	     -1.25446177	    -47.74844349	   -413.44476318	   -264.29652678	   -694.04057603	      0.00000000	      0.00000000	     -0.00000000	  -6045.23238062	      0.00000000	     -0.00000000	      0.00000000	      0.00000000	      0.00000000	      0.00000000	      0.00000000	      0.00000000	      0.00000000
